<svg xmlns="http://www.w3.org/2000/svg" width="500" height="500" viewBox="0 0 500 500"><rect width="100%" height="100%" fill="#FF0000"/><path fill="#000000" d="m145.955 215.85-3.11 5.9q-.56.98-1.19 1.42-.63.44-1.56.44-.97 0-2.11-.72t-2.72-1.6q-1.59-.89-3.7-1.61-2.12-.72-5-.72-2.6 0-4.56.63-1.95.63-3.27 1.74-1.33 1.12-1.98 2.68-.65 1.55-.65 3.41 0 2.38 1.32 3.96 1.33 1.58 3.51 2.69 2.19 1.12 4.98 2 2.79.89 5.72 1.89 2.93 1 5.72 2.32 2.79 1.33 4.97 3.35 2.19 2.02 3.51 4.95 1.33 2.93 1.33 7.12 0 4.55-1.56 8.53-1.56 3.97-4.55 6.93-3 2.95-7.33 4.65-4.32 1.69-9.9 1.69-3.21 0-6.33-.62-3.11-.63-5.97-1.79-2.86-1.17-5.37-2.79-2.51-1.63-4.47-3.63l3.68-6q.46-.65 1.21-1.09.74-.44 1.58-.44 1.16 0 2.51.95 1.35.95 3.21 2.12 1.86 1.16 4.34 2.11 2.49.95 5.98.95 5.35 0 8.28-2.53 2.93-2.53 2.93-7.28 0-2.65-1.33-4.32-1.33-1.68-3.51-2.82-2.19-1.13-4.98-1.92-2.79-.8-5.67-1.73-2.88-.93-5.67-2.23-2.79-1.3-4.98-3.39-2.18-2.09-3.51-5.23-1.32-3.14-1.32-7.75 0-3.67 1.46-7.16 1.47-3.48 4.26-6.18 2.79-2.7 6.88-4.33 4.09-1.62 9.39-1.62 5.95 0 10.97 1.86 5.03 1.86 8.56 5.21Zm35.48 48.59v-8.05q-4.98.24-8.37.86-3.39.63-5.44 1.61-2.05.97-2.93 2.28-.88 1.3-.88 2.83 0 3.02 1.79 4.33 1.79 1.3 4.67 1.3 3.53 0 6.12-1.28 2.58-1.28 5.04-3.88Zm-24.27-25.07-2.05-3.67q8.23-7.53 19.81-7.53 4.19 0 7.49 1.37t5.58 3.81q2.28 2.44 3.46 5.84 1.19 3.39 1.19 7.44v30.13h-5.21q-1.63 0-2.51-.49-.89-.49-1.4-1.97l-1.02-3.45q-1.81 1.63-3.53 2.86-1.72 1.24-3.58 2.07-1.86.84-3.98 1.28-2.12.44-4.67.44-3.03 0-5.58-.81-2.56-.81-4.42-2.44-1.86-1.63-2.88-4.05-1.03-2.41-1.03-5.62 0-1.82.61-3.61.6-1.79 1.97-3.41 1.38-1.63 3.56-3.07 2.19-1.44 5.37-2.51 3.19-1.07 7.42-1.75 4.23-.67 9.67-.81v-2.79q0-4.79-2.05-7.09-2.04-2.3-5.9-2.3-2.79 0-4.63.65-1.83.65-3.23 1.46-1.39.81-2.53 1.47-1.14.65-2.54.65-1.21 0-2.04-.63-.84-.63-1.35-1.47Zm57.75 37.39h-11.48v-47.71h7.02q2.23 0 2.93 2.09l.74 3.54q1.26-1.4 2.63-2.56 1.37-1.16 2.93-2 1.55-.84 3.34-1.32 1.8-.49 3.93-.49 4.51 0 7.42 2.44t4.35 6.49q1.11-2.38 2.79-4.07 1.67-1.7 3.67-2.77t4.26-1.58q2.25-.51 4.53-.51 3.95 0 7.02 1.21 3.07 1.21 5.16 3.53 2.1 2.33 3.19 5.67 1.09 3.35 1.09 7.68v30.36h-11.48V246.4q0-4.56-2-6.86-2-2.3-5.86-2.3-1.77 0-3.28.6-1.51.6-2.65 1.74-1.14 1.14-1.79 2.86-.65 1.72-.65 3.96v30.36h-11.53V246.4q0-4.79-1.93-6.98-1.93-2.18-5.65-2.18-2.51 0-4.68 1.23-2.16 1.23-4.02 3.37v34.92Zm77.89-33.76v21.39q1.95 2.37 4.25 3.35t5 .98q2.61 0 4.7-.98 2.09-.98 3.56-2.98 1.46-2 2.25-5.04.79-3.05.79-7.19 0-4.18-.67-7.09-.68-2.9-1.93-4.72-1.26-1.81-3.05-2.65-1.79-.83-4.07-.83-3.58 0-6.09 1.51t-4.74 4.25Zm-1.54-11.86.93 4.42q2.93-3.3 6.65-5.35 3.72-2.04 8.75-2.04 3.9 0 7.13 1.63 3.23 1.62 5.58 4.71 2.35 3.1 3.63 7.63 1.28 4.53 1.28 10.39 0 5.35-1.44 9.91-1.44 4.55-4.12 7.9-2.67 3.35-6.46 5.23-3.79 1.89-8.49 1.89-4 0-6.83-1.23-2.84-1.24-5.07-3.42v19.53h-11.49v-63.29h7.02q2.24 0 2.93 2.09Zm43.02-23.48h11.48v69.1h-11.48v-69.1Zm32.03 39.76h21.67q0-2.23-.62-4.21-.63-1.98-1.89-3.46-1.25-1.49-3.18-2.35-1.93-.86-4.49-.86-4.98 0-7.84 2.83-2.85 2.84-3.65 8.05Zm29.3 6.93h-29.53q.28 3.67 1.3 6.34 1.03 2.68 2.7 4.42 1.67 1.75 3.98 2.61 2.3.86 5.09.86t4.81-.65q2.02-.66 3.54-1.45 1.51-.79 2.65-1.44 1.13-.65 2.2-.65 1.45 0 2.14 1.07l3.31 4.19q-1.91 2.23-4.28 3.74-2.37 1.51-4.96 2.42-2.58.9-5.25 1.28-2.67.37-5.18.37-4.98 0-9.26-1.65-4.28-1.65-7.44-4.89-3.16-3.23-4.97-7.99-1.82-4.77-1.82-11.05 0-4.88 1.58-9.18t4.54-7.49q2.95-3.18 7.21-5.04 4.25-1.86 9.6-1.86 4.51 0 8.32 1.44 3.81 1.44 6.56 4.21 2.74 2.76 4.3 6.79 1.56 4.02 1.56 9.18 0 2.6-.56 3.51-.56.91-2.14.91Z"/></svg>